<svg xmlns="http://www.w3.org/2000/svg" xmlns:xlink="http://www.w3.org/1999/xlink" width="500" zoomAndPan="magnify" viewBox="0 0 375 374.999991" height="500" preserveAspectRatio="xMidYMid meet" version="1.0"><defs><clipPath id="6d05511a88"><path d="M 7.441406 7.441406 L 367.558594 7.441406 L 367.558594 367.558594 L 7.441406 367.558594 Z M 7.441406 7.441406 " clip-rule="nonzero"/></clipPath><clipPath id="8ec94d7ea2"><path d="M 187.5 7.441406 C 88.058594 7.441406 7.441406 88.058594 7.441406 187.5 C 7.441406 286.941406 88.058594 367.558594 187.5 367.558594 C 286.941406 367.558594 367.558594 286.941406 367.558594 187.5 C 367.558594 88.058594 286.941406 7.441406 187.5 7.441406 Z M 187.5 7.441406 " clip-rule="nonzero"/></clipPath><clipPath id="8ffd9436a6"><path d="M 22.601562 22.601562 L 352.398438 22.601562 L 352.398438 352.398438 L 22.601562 352.398438 Z M 22.601562 22.601562 " clip-rule="nonzero"/></clipPath><clipPath id="6022feb6c3"><path d="M 187.5 22.601562 C 96.429688 22.601562 22.601562 96.429688 22.601562 187.5 C 22.601562 278.570312 96.429688 352.398438 187.5 352.398438 C 278.570312 352.398438 352.398438 278.570312 352.398438 187.5 C 352.398438 96.429688 278.570312 22.601562 187.5 22.601562 Z M 187.5 22.601562 " clip-rule="nonzero"/></clipPath><clipPath id="5213af5e14"><path d="M 72.289062 72.289062 L 302.710938 72.289062 L 302.710938 302.710938 L 72.289062 302.710938 Z M 72.289062 72.289062 " clip-rule="nonzero"/></clipPath><clipPath id="2e14ea11a2"><path d="M 187.5 72.289062 C 123.871094 72.289062 72.289062 123.871094 72.289062 187.5 C 72.289062 251.128906 123.871094 302.710938 187.5 302.710938 C 251.128906 302.710938 302.710938 251.128906 302.710938 187.5 C 302.710938 123.871094 251.128906 72.289062 187.5 72.289062 Z M 187.5 72.289062 " clip-rule="nonzero"/></clipPath><clipPath id="00a56755e8"><path d="M 79.027344 79.027344 L 274.636719 79.027344 L 274.636719 274.636719 L 79.027344 274.636719 Z M 79.027344 79.027344 " clip-rule="nonzero"/></clipPath><clipPath id="4158a1ba1b"><path d="M 176.832031 79.027344 C 122.816406 79.027344 79.027344 122.816406 79.027344 176.832031 C 79.027344 230.847656 122.816406 274.636719 176.832031 274.636719 C 230.847656 274.636719 274.636719 230.847656 274.636719 176.832031 C 274.636719 122.816406 230.847656 79.027344 176.832031 79.027344 Z M 176.832031 79.027344 " clip-rule="nonzero"/></clipPath><clipPath id="392b6d21f3"><path d="M 89.367188 87.121094 L 224.339844 87.121094 L 224.339844 222.09375 L 89.367188 222.09375 Z M 89.367188 87.121094 " clip-rule="nonzero"/></clipPath><clipPath id="3450d079d3"><path d="M 156.855469 87.121094 C 119.582031 87.121094 89.367188 117.335938 89.367188 154.609375 C 89.367188 191.878906 119.582031 222.09375 156.855469 222.09375 C 194.125 222.09375 224.339844 191.878906 224.339844 154.609375 C 224.339844 117.335938 194.125 87.121094 156.855469 87.121094 Z M 156.855469 87.121094 " clip-rule="nonzero"/></clipPath><clipPath id="440c5e1901"><path d="M 96.105469 97.679688 L 194.238281 97.679688 L 194.238281 195.8125 L 96.105469 195.8125 Z M 96.105469 97.679688 " clip-rule="nonzero"/></clipPath><clipPath id="dc6c94717f"><path d="M 145.171875 97.679688 C 118.074219 97.679688 96.105469 119.648438 96.105469 146.746094 C 96.105469 173.847656 118.074219 195.8125 145.171875 195.8125 C 172.269531 195.8125 194.238281 173.847656 194.238281 146.746094 C 194.238281 119.648438 172.269531 97.679688 145.171875 97.679688 Z M 145.171875 97.679688 " clip-rule="nonzero"/></clipPath></defs><rect x="-37.5" width="450" fill="#ffffff" y="-37.499999" height="449.999989" fill-opacity="1"/><rect x="-37.5" width="450" fill="#ffffff" y="-37.499999" height="449.999989" fill-opacity="1"/><g clip-path="url(#6d05511a88)"><g clip-path="url(#8ec94d7ea2)"><path fill="#74b7a0" d="M 7.441406 7.441406 L 367.558594 7.441406 L 367.558594 367.558594 L 7.441406 367.558594 Z M 7.441406 7.441406 " fill-opacity="1" fill-rule="nonzero"/></g></g><g clip-path="url(#8ffd9436a6)"><g clip-path="url(#6022feb6c3)"><path fill="#2e2e2e" d="M 22.601562 22.601562 L 352.398438 22.601562 L 352.398438 352.398438 L 22.601562 352.398438 Z M 22.601562 22.601562 " fill-opacity="1" fill-rule="nonzero"/></g></g><g clip-path="url(#5213af5e14)"><g clip-path="url(#2e14ea11a2)"><path fill="#74b7a0" d="M 72.289062 72.289062 L 302.710938 72.289062 L 302.710938 302.710938 L 72.289062 302.710938 Z M 72.289062 72.289062 " fill-opacity="1" fill-rule="nonzero"/></g></g><g clip-path="url(#00a56755e8)"><g clip-path="url(#4158a1ba1b)"><path fill="#2e2e2e" d="M 79.027344 79.027344 L 274.636719 79.027344 L 274.636719 274.636719 L 79.027344 274.636719 Z M 79.027344 79.027344 " fill-opacity="1" fill-rule="nonzero"/></g></g><g clip-path="url(#392b6d21f3)"><g clip-path="url(#3450d079d3)"><path fill="#74b7a0" d="M 89.367188 87.121094 L 224.339844 87.121094 L 224.339844 222.09375 L 89.367188 222.09375 Z M 89.367188 87.121094 " fill-opacity="1" fill-rule="nonzero"/></g></g><g clip-path="url(#440c5e1901)"><g clip-path="url(#dc6c94717f)"><path fill="#2e2e2e" d="M 96.105469 97.679688 L 194.238281 97.679688 L 194.238281 195.8125 L 96.105469 195.8125 Z M 96.105469 97.679688 " fill-opacity="1" fill-rule="nonzero"/></g></g></svg>